PathFileType	4	(X/Y/Z)	/Users/niels/Desktop/University/Third Semester/Perception and Action/Exam/Gymnastics Motion Tracking/Code for Gym Tracking/Analyzed Data/Backflip/id2_2_pure_Sports2D/id2_2_pure_Sports2D_px_person00.trc
DataRate	CameraRate	NumFrames	NumMarkers	Units	OrigDataRate	OrigDataStartFrame	OrigNumFrames
59.925093632958806	59.925093632958806	11	22	m	59.925093632958806	210	241
Frame#	Time	Hip			RHip			RKnee			RAnkle			RBigToe			RSmallToe			RHeel			LHip			LKnee			LAnkle			LBigToe			LSmallToe			LHeel			Neck			Head			Nose			RShoulder			RElbow			RWrist			LShoulder			LElbow			LWrist		
		X1	Y1	Z1	X2	Y2	Z2	X3	Y3	Z3	X4	Y4	Z4	X5	Y5	Z5	X6	Y6	Z6	X7	Y7	Z7	X8	Y8	Z8	X9	Y9	Z9	X10	Y10	Z10	X11	Y11	Z11	X12	Y12	Z12	X13	Y13	Z13	X14	Y14	Z14	X15	Y15	Z15	X16	Y16	Z16	X17	Y17	Z17	X18	Y18	Z18	X19	Y19	Z19	X20	Y20	Z20	X21	Y21	Z21	X22	Y22	Z22
210	3.504375	0.9666466260948143	-0.4094207132207485	0.0	0.9599910467744067	-0.405442995311297	0.0	0.9356956162251125	-0.5095119083168175	0.0	0.8989465331600199	-0.6031452646911439	0.0	0.9325484388406817	-0.6366815036821539	0.0	0.9273480924607288	-0.6363293200312338	0.0	0.8887143626315509	-0.6133177456741362	0.0	0.9745604768108804	-0.4130451390250963	0.0	0.9489178145270144	-0.512685390297889	0.0	0.9068356564919523	-0.6009173774775739	0.0	0.9369724343434159	-0.6307143902234696	0.0	0.9342699913323498	-0.6270250892673565	0.0	0.8916419534976848	-0.610307285444488	0.0	1.0896337140536811	-0.4040179035416721	0.0	1.155845577818655	-0.422947554203952	0.0	1.1176973014726224	-0.43711314283750763	0.0	1.0705675283153324	-0.3963619551871256	0.0	1.0176148679327488	-0.44462572640993825	0.0	0.9823044704607858	-0.4947139428883428	0.0	1.0805447987139465	-0.40345854268522746	0.0	1.0325860998538567	-0.4526067365807958	0.0	0.9990526045367525	-0.4986100706588844	0.0
211	3.5210625	0.9650847288378168	-0.42655580309359215	0.0	0.9580868162853698	-0.42246922428664185	0.0	0.9385161490690106	-0.5270876306207608	0.0	0.9084615720124882	-0.6247307818394067	0.0	0.943847512861082	-0.6546632995168414	0.0	0.9401102791567927	-0.6548812360992877	0.0	0.8988591033596033	-0.6355372038801614	0.0	0.9735770747864917	-0.43006510584249513	0.0	0.9528431928300898	-0.5300367203812029	0.0	0.9170340914150287	-0.6226273912552647	0.0	0.9491217136354252	-0.6486381825149233	0.0	0.9458633971386085	-0.64513526800545	0.0	0.9026517919052736	-0.6324359982528635	0.0	1.0862678169567266	-0.40706541411000646	0.0	1.1532590496109232	-0.42076298764158704	0.0	1.1161971902078527	-0.4376298064014884	0.0	1.067285266320582	-0.4002548925614048	0.0	1.0224481184021639	-0.4556011622982488	0.0	0.9941628157065837	-0.507797416319765	0.0	1.077637880628485	-0.40797509087783346	0.0	1.03780380076603	-0.4623105669576094	0.0	1.0117484064583615	-0.5108221954299911	0.0
212	3.5377500000000004	0.963898948348007	-0.44426980477415845	0.0	0.9566635099905519	-0.44023155629444455	0.0	0.9414244853670779	-0.5451255018039298	0.0	0.9174376318600638	-0.6453847198444594	0.0	0.9536787642921224	-0.6713921895329363	0.0	0.9516441897716551	-0.6719744191142101	0.0	0.9082309089602714	-0.6563665004769299	0.0	0.9728056773302186	-0.4475655847292862	0.0	0.9566717890889348	-0.5477229007461676	0.0	0.9266897511435483	-0.6433889050316514	0.0	0.9600792324640587	-0.6656102483734522	0.0	0.95620457466806	-0.6621878563152095	0.0	0.913118706655481	-0.6530956365518094	0.0	1.081951221384057	-0.41115849966868534	0.0	1.1490908303925313	-0.4195486680206256	0.0	1.1134457290886892	-0.43905584873200226	0.0	1.0631816366804336	-0.4052573352985017	0.0	1.027562729514368	-0.46622398314942826	0.0	1.0073021259197907	-0.5195930304935383	0.0	1.073911715496147	-0.4133946238248291	0.0	1.0431151895031243	-0.47153920342216316	0.0	1.0254496855423114	-0.5216514754669517	0.0
213	3.5544375	0.9630962111248929	-0.46238055001488054	0.0	0.9557485179313093	-0.4585268921723914	0.0	0.9443292451996004	-0.5634470198880276	0.0	0.9256162219765042	-0.6651205665641139	0.0	0.9618886508150551	-0.6868502185699741	0.0	0.9616836414384571	-0.6875835032837249	0.0	0.916483906731932	-0.6758638377904769	0.0	0.9722440105422144	-0.46536854779175313	0.0	0.960283583455161	-0.5655968020766452	0.0	0.935522169377746	-0.6632333489116033	0.0	0.9697683927096544	-0.6818039907280989	0.0	0.9651942203905044	-0.6783380879122093	0.0	0.9226952445286877	-0.6723428955771494	0.0	1.0768320551136876	-0.4162970026113397	0.0	1.1435448644266033	-0.4193574592702654	0.0	1.1096331693538	-0.4414202740431439	0.0	1.0583885098747512	-0.41141481963111537	0.0	1.0328903253402657	-0.47632171013098423	0.0	1.0214916415363782	-0.5297146021050738	0.0	1.069440918540737	-0.4196685452611184	0.0	1.0483735657013478	-0.4801219153697723	0.0	1.0398096285636504	-0.5307269951151528	0.0
214	3.5711250000000003	0.9626569184174748	-0.4806780813153119	0.0	0.9553311536562308	-0.4771184017004223	0.0	0.9471527792352834	-0.5818323820226614	0.0	0.932831065429906	-0.6839191427214487	0.0	0.9684069148913531	-0.70093233488824	0.0	0.9699936304940376	-0.7016294624195379	0.0	0.9233803108833663	-0.6940728907703803	0.0	0.9718768945781576	-0.4832801605458756	0.0	0.9635939792844403	-0.5834741357914445	0.0	0.9433262234511594	-0.6821616502384485	0.0	0.9781744549047949	-0.6973289495791121	0.0	0.9728301266362156	-0.6936769662662567	0.0	0.9311501453161454	-0.6902145527647443	0.0	1.071074756943276	-0.422442097009168	0.0	1.1368541057670098	-0.42019998030092726	0.0	1.104967185075772	-0.444713407094621	0.0	1.0530745300067978	-0.4187142280469763	0.0	1.0383443490006958	-0.485716438902323	0.0	1.0363898680170036	-0.5378267352517483	0.0	1.0643130381796673	-0.4267325438714628	0.0	1.0533936269408104	-0.48790334504758803	0.0	1.0543857987579865	-0.5377517845299101	0.0
215	3.5878125	0.9625287983415648	-0.49892657154239034	0.0	0.9553575744053374	-0.4957424878271267	0.0	0.9498325664219758	-0.6000283791141261	0.0	0.9390120247063753	-0.7017127070398899	0.0	0.9732501472305078	-0.7134688209549119	0.0	0.9763345840730895	-0.7139975035167493	0.0	0.928797627976747	-0.7110088902777254	0.0	0.9716693097132774	-0.5010939164526002	0.0	0.9665471430160123	-0.6011308369187898	0.0	0.9499848236214357	-0.700121195239189	0.0	0.9853432554252489	-0.7122187495112366	0.0	0.9792011636765974	-0.7082060108956715	0.0	0.9383799694235669	-0.7067032926980535	0.0	1.064857104082638	-0.4295081034963036	0.0	1.1292797581254899	-0.4220457770888807	0.0	1.0996663694736946	-0.44888284338005574	0.0	1.0474333285126116	-0.427072430768968	0.0	1.0438198086598773	-0.494225470287502	0.0	1.0515547686794096	-0.5436682443500938	0.0	1.0586302085391732	-0.43449817003961505	0.0	1.0579704659374205	-0.4947548816414939	0.0	1.0686749699554527	-0.5425262067337929	0.0
216	3.6045000000000003	0.9626339227406793	-0.5168709825266782	0.0	0.9557405945248606	-0.5141156743932036	0.0	0.952319701890133	-0.6177617577101534	0.0	0.9441850529139351	-0.7183777117380917	0.0	0.976525276678211	-0.7242985195192142	0.0	0.980405708894417	-0.7245977075979472	0.0	0.9327329583233598	-0.7266564927640424	0.0	0.9715615782481335	-0.5185886555137434	0.0	0.9691051954441012	-0.6183120037524245	0.0	0.9554773810557251	-0.7169929217282892	0.0	0.9913793269546529	-0.7264247761352408	0.0	0.9844632266678904	-0.7218261171222443	0.0	0.9444081459301911	-0.7217470873200751	0.0	1.0583661583139958	-0.4373527712335259	0.0	1.1211059260264495	-0.42482756045163	0.0	1.0939519196696739	-0.4538314419577377	0.0	1.0416709797068986	-0.43632979602585437	0.0	1.0491966283988692	-0.5016755488498655	0.0	1.0664855417021752	-0.5470877397866261	0.0	1.052508252502676	-0.44283857329528625	0.0	1.0618999749731335	-0.5005889072366949	0.0	1.082161352960731	-0.5449747532481396	0.0
217	3.6211875	0.962881492456854	-0.5342405350557902	0.0	0.9563750890596765	-0.5319382724199778	0.0	0.9545855217175904	-0.6347508535067585	0.0	0.9484668384560206	-0.7337453042185929	0.0	0.9784359255354077	-0.73334911484636	0.0	0.981910392891465	-0.7334269786705196	0.0	0.9353056549110574	-0.7409840453609964	0.0	0.9714754906097304	-0.5355220266436214	0.0	0.9712515377198275	-0.6347481166794419	0.0	0.9598763650992173	-0.7325991362872619	0.0	0.9964271059188335	-0.7398388901044917	0.0	0.9888096645298255	-0.7343744028936887	0.0	0.9493683139144954	-0.7352569887036404	0.0	1.0517911528238397	-0.4457723687752817	0.0	1.1126293564683136	-0.42844225480267617	0.0	1.0880383267875242	-0.45941761106168255	0.0	1.0359949564584254	-0.4462479937035538	0.0	1.0543418603543195	-0.5079265946514666	0.0	1.0806718325137152	-0.5480799936827175	0.0	1.0460781945018607	-0.45157063567127753	0.0	1.065006715691196	-0.5053671711949621	0.0	1.0943739722473653	-0.5451640194781283	0.0
218	3.637875	0.96317490277182	-0.5507480344125358	0.0	0.9571474167256467	-0.5488973547886353	0.0	0.9566334650990282	-0.6507176137150573	0.0	0.9520396813592139	-0.7476244353686363	0.0	0.979271553639334	-0.7406604423301238	0.0	0.9808975223978812	-0.7405702971982044	0.0	0.9367453056058449	-0.7539495343007354	0.0	0.9713241914819613	-0.5516269159457212	0.0	0.973002770161159	-0.6501733721988754	0.0	0.9633231062509962	-0.7467295124516254	0.0	1.0006330871000093	-0.7523253359380255	0.0	0.992439971857822	-0.7456853818317647	0.0	0.9534700540048483	-0.7471567569175437	0.0	1.0453167386819937	-0.4545073476931054	0.0	1.1041517304831656	-0.432749463000969	0.0	1.0821295293018154	-0.46545737268263104	0.0	1.0306007620854	-0.45651447827768715	0.0	1.0591169383558943	-0.5128955590835563	0.0	1.0936400007665683	-0.5468009781856633	0.0	1.0394903234022852	-0.4604500448202559	0.0	1.0671788914474096	-0.5090979239651497	0.0	1.1049474190502107	-0.5432993385840111	0.0
219	3.6545625000000004	0.9634167886323957	-0.5660900672767586	0.0	0.9579406174569659	-0.5646700188209294	0.0	0.9585057205514649	-0.6653977673010723	0.0	0.9550997620815094	-0.7598240312507971	0.0	0.9793597880733008	-0.7463699489309099	0.0	0.9779872259146466	-0.7461755073758332	0.0	0.9373582633218843	-0.765483912046412	0.0	0.9710241815044552	-0.5666135259823494	0.0	0.9744158481054873	-0.6643412894377063	0.0	0.9659866685141396	-0.7591726092550584	0.0	1.0041112546139794	-0.7637267897907474	0.0	0.9955327545628707	-0.7556231750269233	0.0	0.9569486925619595	-0.7573956584118653	0.0	1.0391184833330582	-0.4632553452034453	0.0	1.0959730525910087	-0.4375668174343424	0.0	1.0764188570202526	-0.47172904802788007	0.0	1.0256557413298737	-0.4667547375088686	0.0	1.0633933752532456	-0.5165691339322909	0.0	1.1050007325421065	-0.5435520599732341	0.0	1.0329227136422425	-0.46919070161171667	0.0	1.0683973279903762	-0.5118263686222805	0.0	1.1136652983750557	-0.5396998459004925	0.0
220	3.67125	0.9635209273777622	-0.5799529453046356	0.0	0.958645254817372	-0.5789268171316806	0.0	0.9602794607918577	-0.6785400918310422	0.0	0.9578007927570268	-0.7701623230613741	0.0	0.9790099802400769	-0.7506952129306447	0.0	0.9740819753849553	-0.7504486920340885	0.0	0.9374939850419749	-0.775472940868581	0.0	0.97051193060415	-0.5801749888447956	0.0	0.9755833852527677	-0.6770268787367739	0.0	0.968023258739414	-0.7697324751183471	0.0	1.006929848028035	-0.7738551678151346	0.0	0.9982288358534513	-0.7640886044805288	0.0	0.9599950826004526	-0.7659464594828362	0.0	1.03335883349625	-0.4716841941708171	0.0	1.088376817619459	-0.4426655113176728	0.0	1.071084987964939	-0.4779792240136844	0.0	1.0212850719427529	-0.47655391057737917	0.0	1.067069008346775	-0.518997334434626	0.0	1.1144949478107729	-0.5387403142009575	0.0	1.0265910307759514	-0.47749142818757573	0.0	1.0687479685885548	-0.5136184755882929	0.0	1.120470286605425	-0.5347561927190846	0.0
